<svg xmlns="http://www.w3.org/2000/svg" viewBox="0 0 64 64">
  <rect width="64" height="64" rx="14" fill="#08090f"/>
  <path fill="#0f172a" d="M11 14a8 8 0 0 1 8-8h26a8 8 0 0 1 8 8v36a8 8 0 0 1-8 8H19a8 8 0 0 1-8-8z"/>
  <path fill="none" stroke="#22d3ee" stroke-linecap="round" stroke-linejoin="round" stroke-width="5" d="m27 22-9 10 9 10m10-20 9 10-9 10"/>
  <path fill="none" stroke="#a3e635" stroke-linecap="round" stroke-width="3.5" d="M25 48h14"/>
  <circle cx="21" cy="48" r="5" fill="#22d3ee"/>
  <circle cx="43" cy="48" r="5" fill="#a3e635"/>
  <circle cx="32" cy="16" r="4" fill="#c084fc"/>
</svg>
